<?xml version="1.0" encoding="UTF-8"?>
<svg id="Layer_1" data-name="Layer 1" xmlns="http://www.w3.org/2000/svg" viewBox="0 0 216 216">
  <defs>
    <style>
      .cls-1 {
        fill: #e2e2e2;
      }
    </style>
  </defs>
  <circle cx="108" cy="108" r="106.25"/>
  <g>
    <path class="cls-1" d="M134.63,85.03v47.98c0,9.03-2.41,16.03-7.23,21-4.82,4.97-11.36,7.46-19.63,7.46s-14.77-2.49-19.51-7.46-7.12-11.97-7.12-21v-47.98h-30.07v48.9c0,10.41,2.45,19.7,7.35,27.89s11.67,14.54,20.31,19.05c8.65,4.51,18.32,6.77,29.04,6.77s20.62-2.26,29.27-6.77c8.65-4.51,15.46-10.86,20.43-19.05,4.97-8.19,7.46-17.48,7.46-27.89v-48.9h-30.3Z"/>
    <g>
      <rect class="cls-1" x="122.61" y="28.37" width="30.3" height="26.97"/>
      <rect class="cls-1" x="63.09" y="28.37" width="30.07" height="26.97"/>
    </g>
  </g>
</svg>