<?xml version="1.0" encoding="UTF-8"?>
<svg id="Layer_1" data-name="Layer 1" xmlns="http://www.w3.org/2000/svg" viewBox="0 0 888.78 257.63">
  <defs>
    <style>
      .cls-1 {
        fill: #2b2725;
      }
    </style>
  </defs>
  <path class="cls-1" d="M51.75,110.74h108.81v39.63H51.75v99.07H6.21V9.58h171.38v39.63H51.75v61.53Z"/>
  <path class="cls-1" d="M194.62,173.66v-104.98h43.11v102.9c0,13.91,2.96,24.45,8.86,31.63,5.91,7.18,15.47,10.78,28.68,10.78s23.06-3.54,28.85-10.6c5.79-7.07,8.69-17.67,8.69-31.81v-102.9h43.11v104.98c0,26.19-6.78,45.89-20.34,59.1-13.56,13.21-33.66,19.82-60.31,19.82s-46.76-6.66-60.31-19.99c-13.56-13.33-20.34-32.97-20.34-58.92ZM253.72,5.06v40.33h-37.2V5.06h37.2ZM333.67,5.06v40.33h-37.2V5.06h37.2Z"/>
  <path class="cls-1" d="M393.46,191.04V9.58h43.11v178.68c0,8.81,1.8,15.01,5.39,18.6,3.59,3.59,10.02,5.39,19.29,5.39h16.34v37.2h-23.99c-20.39,0-35.52-4.81-45.37-14.43-9.85-9.62-14.77-24.28-14.77-43.97Z"/>
  <path class="cls-1" d="M544.68,193.47v55.97h-43.11V9.58h43.11v135.57l73.35-76.48h55.27l-72.65,70.57,77.87,110.2h-54.58l-53.54-81-25.72,25.03Z"/>
  <path class="cls-1" d="M739.7,8.54v34.42h-42.76V8.54h42.76ZM739.7,68.68v180.77h-42.76V68.68h42.76Z"/>
  <path class="cls-1" d="M841.55,191.04c0,7.88,1.68,13.5,5.04,16.86,3.36,3.36,8.98,5.04,16.86,5.04h15.3v36.5h-23.29c-18.31,0-32.33-4.81-42.06-14.43-9.73-9.62-14.6-23.35-14.6-41.19v-94.9h-31.63v-30.24h31.63v-35.46l42.76-14.95v50.41h41.02v30.24h-41.02v92.12Z"/>
</svg>