<?xml version="1.0" encoding="UTF-8"?>
<svg id="Layer_1" data-name="Layer 1" xmlns="http://www.w3.org/2000/svg" viewBox="0 0 720 720">
  <defs>
    <style>
      .cls-1 {
        fill: #fff;
        stroke: #8a8784;
        stroke-miterlimit: 10;
        stroke-width: 40px;
      }

      .cls-2 {
        fill: #8a8784;
      }
    </style>
  </defs>
  <circle class="cls-1" cx="360" cy="360" r="335.4"/>
  <path class="cls-2" d="M237.1,548.38c-11.5-19.17-17.25-41.58-17.25-67.25v-221h65.5v219c0,23.33,6.33,41.17,19,53.5s30.83,18.5,54.5,18.5,42-6.17,55-18.5,19.5-30.17,19.5-53.5v-219h65.5v221c0,25.67-5.75,48.08-17.25,67.25s-27.83,33.92-49,44.25-45.75,15.5-73.75,15.5-52-5.17-73-15.5-37.25-25.08-48.75-44.25Z"/>
  <g>
    <rect class="cls-2" x="252.11" y="125.69" width="73.01" height="73.01"/>
    <rect class="cls-2" x="394.87" y="125.69" width="73.01" height="73.01"/>
  </g>
</svg>